<?xml version="1.0" encoding="utf-8"?>
<!-- Generator: Adobe Illustrator 25.0.0, SVG Export Plug-In . SVG Version: 6.00 Build 0)  -->
<svg version="1.1" id="Capa_1" xmlns="http://www.w3.org/2000/svg" xmlns:xlink="http://www.w3.org/1999/xlink" x="0px" y="0px"
	 viewBox="0 0 1207.5 1094.5" style="enable-background:new 0 0 1207.5 1094.5;" xml:space="preserve">
<style type="text/css">
	.st0{fill:#FFFFFF;}
	.st1{fill-rule:evenodd;clip-rule:evenodd;fill:#00A04D;}
	.st2{fill-rule:evenodd;clip-rule:evenodd;fill:#07609C;}
	.st3{opacity:0.5;}
	.st4{opacity:0.6;}
	.st5{opacity:0.4;}
	.st6{opacity:0.7;}
	.st7{fill:#98C451;}
	.st8{fill:#99C553;}
	.st9{fill:#07609C;}
	.st10{fill:#082A3A;}
	.st11{fill:#0B4467;stroke:#FFFFFF;stroke-width:0.75;stroke-miterlimit:10;}
	.st12{fill:#0B4467;}
	.st13{fill:#05629C;stroke:#FFFFFF;stroke-width:0.75;stroke-miterlimit:10;}
	.st14{fill:#FFFFFF;stroke:#FFFFFF;stroke-width:1.1;stroke-miterlimit:10;}
</style>
<circle class="st0" cx="609.2" cy="478.3" r="478.3"/>
<g>
	<path class="st1" d="M608.4,19.1c253.1,0,458.3,206.2,458.3,460.6S861.4,940.3,608.4,940.3C355,940.3,149.8,734,149.8,479.7
		C149.8,225.3,355,19.1,608.4,19.1L608.4,19.1z"/>
	<path class="st2" d="M608.4,19.1c118.6,0,226.8,45.1,308.1,119.7l-16.8,6.7l-9.3,9.9l2.1,11.5l11.2,1.6l6.9,16.8l19.1-7.7l3.2,22.7
		h-5.8l-15.7-2.4l-17.5,2.9l-17,24.1l-24.2,3.7l-3.5,20.8l10.1,2.4l-2.9,13.4l-23.9-4.8l-22.1,4.8l-4.8,12.3l4,25.9l12.8,6.1
		l21.8-0.3l14.6-1.3l4.5-11.8l22.9-29.9l15.2,3.2l14.6-13.4l2.9,10.4l36.4,24.9l-4.3,5.9l-16.5-0.8l6.1,9.1l10.4,2.1l11.7-5.1
		l-0.3-14.2l5.3-2.7l-4.3-4.5l-24.2-13.6l-6.4-18.2h20.2l6.4,6.4l17.5,15.2l0.5,18.2l18.1,19.2l6.9-26.5l12.5-6.9l2.4,21.6
		l12.2,13.6h5.1c5,12.8,9.6,25.9,13.3,39.3h-21.3l-22.9-17.1l-23.9,2.4v14.7h-7.4l-8.2-5.9L922.9,333v-26.7l-52.6,4l-16.2,8.8h-20.7
		l-10.4-1.1l-25.2,14.2v26.5l-51.6,37.7l4.3,16h10.4l-2.7,15.2l-7.4,2.7l-0.3,39.8l44.7,51.3h19.4l1.1-3.2h35.1l10.1-9.4h19.9
		l10.9,11l29.5,2.9l-4,39.5l33,58.2l-17.3,33.4l1.1,15.5l13.6,13.6v37.7l18.1,24.1v24c-84.3,104.5-213,171.5-357,171.5
		c-237.4,0-432.5-181.1-456.2-413.6l0,0c-0.3-3.5-0.5-7.2-0.8-10.9l0,0c-1.1-12-1.3-24.1-1.3-36.1v-2.9v-5.4v-6.7l0.3-6.7l0.3-4
		c0.3-2.9,0.3-5.9,0.5-8.5l0.3-2.1c4-51.6,16.5-100.7,35.9-146.1v25.1l19.4,9.4v37.4l18.6,31.8l15.2,2.4l2.1-11l-18.1-27.8l-3.4-27
		h10.6l4.2,27.8l26.1,37.9l-6.6,12.3l16.2,25.1l40.9,10.4v-6.7l16.5,2.4l-1.6,11.5l12.8,2.4l19.7,5.6l28.2,32.1l35.6,2.7l3.5,29.4
		l-24.5,17.1l-1.1,26.2l-3.5,16l35.4,44.6l2.7,15.2c0,0,12.8,3.5,14.4,3.5s29,20.8,29,20.8v80.4l9.6,2.7l-6.6,37.1l16.5,21.9
		l-3.2,36.9l21.8,37.9l27.7,24.3l27.6,0.5l2.9-8.8l-20.5-17.4l1.1-8.6l3.7-10.7l0.8-10.7l-13.8-0.3l-6.9-8.8l11.4-11.2l1.6-8.6
		l-13-3.5l0.8-8l18.3-2.7l27.9-13.4l9.3-17.4l29.2-37.4l-6.6-29.4l8.8-15.5l26.8,0.8l18.1-14.4l5.8-56.7l19.9-25.6l3.7-16.3
		l-18.3-5.9l-12.2-20l-41.2-0.3L598,552.6l-1.6-23.5l-10.9-19l-29.5-0.5l-17.3-27l-15.2-7.5l-0.8,8.3l-27.6,1.6L485,470.9l-28.7-5.9
		l-23.7,27.8l-37.5-6.4l-2.7-42.5l-27.1-4.5l10.9-20.8l-3.2-11.8l-35.9,24l-22.3-2.9l-8.2-17.6l5.1-18.2l12.5-23l28.5-14.7h55.3
		l-0.3,17.1l19.9,9.1l-1.6-28.9l14.4-14.4l28.7-19l2.1-13.4l28.7-30.2l30.6-17.1l-2.7-2.1l20.7-19.5l7.4,1.9l3.5,4.3l8-8.6l1.9-1.1
		l-8.5-1.1l-8.8-2.9V220l4.5-3.7h10.4l4.5,1.9l4.2,8.3l4.8-0.8v-0.5l1.6,0.3l14.3-2.1l1.9-6.9l8.2,1.9v7.7l-7.7,5.3h0.3l1.1,8.3
		l25.8,8l0.3,0.3l5.8-0.3l0.5-11.5l-20.7-9.4l-1.1-5.6l17-5.6l0.8-16.6l-17.8-10.9l-1.3-27.8l-24.5,12.3h-8.8l2.1-21.1l-33.2-8
		l-13.8,10.4v32.1l-24.7,7.8l-10.1,20.8l-10.6,1.9v-26.7l-23.4-3.2l-11.7-7.8l-4.5-17.1l41.8-24.6l20.2-6.4l2.1,13.9l11.4-0.5
		l0.8-6.9l12-1.9l0.3-2.4l-5.3-2.1l-1.1-7.2l14.6-1.1l8.8-9.3l0.5-0.5h0.3l2.7-2.9l30.6-3.7l13.6,11.5l-35.6,19l45.2,10.9l6.1-15.2
		h19.7l7.2-13.4l-14.1-3.5V98.2l-43.9-19.5l-30.3,3.5L536.3,91l1.3,21.9l-18.1-2.7l-2.7-12l17.3-15.8l-31.1-1.6l-9,2.9l-4,10.4
		l11.7,2.1l-2.4,11.5l-19.7,1.3l-3.2,7.8l-28.7,0.8c0,0-0.8-16.3-1.9-16.3c-1.3,0,22.3-0.5,22.3-0.5L485.5,84l-9.3-4.8l-12.5,12.3
		L443,90.4l-12.2-17.4h-26.6l-27.6,20.8h25.3l2.4,7.2l-6.6,6.4l28.2,0.8l4.3,10.2l-31.6-1.3l-1.6-7.7l-19.7-4.3l-10.6-5.9l-17,0.3
		C423.1,48.7,512.1,19.1,608.4,19.1L608.4,19.1z M833,175.9l4.3-6.4l15.4-3.2l4,18.7l8,13.4l5.6,6.1l9.8,4l-9.3,11.2l-18.1,1.6
		h-13.5l1.6-16.3l11.2-2.1l-0.8-7.8l-10.6-6.7l-7.5-5.1L833,175.9L833,175.9z M807.7,205.3l9.3-15l12.8-2.9l9,3.7l-1.1,10.4
		l-19.1,13.6h-10.9V205.3L807.7,205.3z M553.6,263.3l-9.8,0.8l0.5-7l4.5-5.4l5.8,4.5L553.6,263.3z M587.9,251.3l-6.7,0.5l-1.3,6.4
		l-5.3,3.2l-8.2,0.8c-0.3-2.1-0.3-3.5-0.3-3.5h-3.2v-6.9h13.3l2.7-7.2h5.3l6.1,1.1L587.9,251.3z"/>
</g>
<g>
	<g>
		<g class="st3">
			
				<image style="overflow:visible;enable-background:new    ;" width="383" height="404" xlink:href="6F9879BD.png"  transform="matrix(0.2369 0 0 0.2369 584.3867 60.5629)">
			</image>
		</g>
	</g>
	<g>
		<g class="st4">
			
				<image style="overflow:visible;enable-background:new    ;" width="292" height="275" xlink:href="6F9879BF.png"  transform="matrix(0.2334 0 0 0.2334 332.6267 152.1541)">
			</image>
		</g>
	</g>
</g>
<g>
	
		<image style="overflow:visible;enable-background:new    ;" width="442" height="1121" xlink:href="6F9879BA.png"  transform="matrix(0.2378 0 0 0.2378 959.2667 352.1473)">
	</image>
	
		<image style="overflow:visible;enable-background:new    ;" width="254" height="354" xlink:href="6F9879BB.png"  transform="matrix(0.2372 0 0 0.2372 942.9467 370.7517)">
	</image>
	
		<image style="overflow:visible;opacity:0.8;enable-background:new    ;" width="208" height="229" xlink:href="6F9879C5.png"  transform="matrix(0.2319 0 0 0.2319 925.6667 518.6548)">
	</image>
	
		<image style="overflow:visible;opacity:0.7;enable-background:new    ;" width="192" height="267" xlink:href="6F9879C7.png"  transform="matrix(0.235 0 0 0.235 952.3067 339.9575)">
	</image>
</g>
<g>
	
		<image style="overflow:visible;enable-background:new    ;" width="496" height="1088" xlink:href="6F9879CA.png"  transform="matrix(0.2385 0 0 0.2385 153.8267 425.2797)">
	</image>
	
		<image style="overflow:visible;enable-background:new    ;" width="208" height="383" xlink:href="6F9879CB.png"  transform="matrix(0.2354 0 0 0.2354 239.9867 575.7338)">
	</image>
	
		<image style="overflow:visible;opacity:0.8;enable-background:new    ;" width="233" height="196" xlink:href="6F9879CD.png"  transform="matrix(0.2359 0 0 0.2359 239.5067 463.1738)">
	</image>
	
		<image style="overflow:visible;opacity:0.7;enable-background:new    ;" width="158" height="288" xlink:href="21099856.png"  transform="matrix(0.2324 0 0 0.2324 251.2667 628.6237)">
	</image>
</g>
<g>
	<g>
		<g class="st5">
			
				<image style="overflow:visible;enable-background:new    ;" width="188" height="121" xlink:href="21099851.png"  transform="matrix(0.2349 0 0 0.2349 693.3467 224.9989)">
			</image>
		</g>
	</g>
	<g>
		<g class="st6">
			
				<image style="overflow:visible;enable-background:new    ;" width="250" height="167" xlink:href="21099852.png"  transform="matrix(0.2323 0 0 0.2323 732.7067 218.9713)">
			</image>
		</g>
	</g>
	<g>
		<g>
			
				<image style="overflow:visible;enable-background:new    ;" width="175" height="113" xlink:href="21099850.png"  transform="matrix(0.2315 0 0 0.2315 704.2901 146.69)">
			</image>
		</g>
	</g>
	<g>
		<g>
			
				<image style="overflow:visible;enable-background:new    ;" width="367" height="238" xlink:href="2109986E.png"  transform="matrix(0.238 0 0 0.238 749.9968 134.93)">
			</image>
		</g>
	</g>
	
		<image style="overflow:visible;enable-background:new    ;" width="538" height="329" xlink:href="21099871.png"  transform="matrix(0.2364 0 0 0.2364 670.6879 157.97)">
	</image>
</g>
<image style="overflow:visible;enable-background:new    ;" width="821" height="442" xlink:href="21099872.png"  transform="matrix(0.2362 0 0 0.2362 496.067 364.37)">
</image>
<image style="overflow:visible;enable-background:new    ;" width="350" height="192" xlink:href="21099870.png"  transform="matrix(0.23 0 0 0.23 882.4167 176.45)">
</image>
<image style="overflow:visible;enable-background:new    ;" width="1875" height="1463" xlink:href="21099876.png"  transform="matrix(0.2392 0 0 0.2392 352.3067 581.0518)">
</image>
<path class="st0" d="M869.2,789.6c-88.3,63.8-154.6,74.5-263.2,69.7c-108.7-4.8-226.4-48.4-303.6-125.5
	c-77.5-77.5-107.5-187.5-94.8-298.9l0-0.1c2.6-24.5,7.6-50.3,15.7-77.6c0,0,42.2-144.9,144.9-190.3c21.5-9.5,45.7-10.6,67.9-3
	c20.1,6.9,47,20.1,74.7,45.3c56.5,51.2,137.6,87.1,137.6,87.1s43.3,21.5,158.5,19.3c101.3-1.9,138.3,27.7,146.8,34.1
	c3.9,2.9,58.7,33.4,58.9,146.3c0.1,79.1-45.3,216.7-143.3,293.4L869.2,789.6z"/>
<path class="st7" d="M388.3,445.9h49.8c0,0,29.4-91.7-35-109.3c0,0-48.8-20.1-91.2,34.6c0,0-8.8,9.8-14.3,27.4
	c-3.4,19.7-31.1,180-31.1,180s-11.3,50.9,33.6,70.5c45,19.7,82.4-14.5,82.4-14.5s24.4-17.1,33.6-59l5-38.9h-49.6l-4.6,35.1
	c0,0-2.5,32.9-32.8,33.8c-30.3,0.8-18.5-35.9-18.5-35.9l26.5-154.7c0,0,3.1-32.2,32-31.8c2.1,0,4.2,0.4,6.2,1.2
	c19.2,7.4,13.8,26.8,13.8,26.8L388.3,445.9z"/>
<polygon class="st8" points="632.9,333.1 498.4,333.1 444.8,655.2 577.9,655.2 586,605.8 499.4,605.8 513.9,519.4 577.9,519.4 
	586.8,468.8 522.9,468.8 537,383.6 625.6,383.6 "/>
<polygon class="st9" points="658.7,655.2 608.4,655.2 664.5,333.1 804,333.1 795.6,383.6 705.9,383.6 691.4,468.8 755.8,468.8 
	747.1,519.4 681.8,519.4 "/>
<g>
	<path class="st10" d="M356.4,692.7c0-10.9,7.2-17.3,15.5-17.3c4.2,0,7.7,2,9.9,4.3l-3.9,4.8c-1.6-1.5-3.4-2.6-5.8-2.6
		c-4.5,0-8.1,4-8.1,10.6c0,6.8,3.1,10.7,7.9,10.7c2.7,0,4.8-1.3,6.4-3.1l3.9,4.7c-2.7,3.2-6.4,4.8-10.6,4.8
		C363.4,709.6,356.4,703.8,356.4,692.7z"/>
	<path class="st10" d="M387.7,696.4c0-8.2,5.8-13.2,11.8-13.2c7.1,0,10.6,5.2,10.6,12.1c0,1.3-0.2,2.7-0.3,3.3h-15
		c0.7,3.6,3.1,5.3,6.5,5.3c1.9,0,3.6-0.6,5.4-1.6l2.5,4.5c-2.6,1.8-5.9,2.8-8.9,2.8C393.3,709.6,387.7,704.7,387.7,696.4z
		 M403.9,693.7c0-2.8-1.2-4.8-4.1-4.8c-2.3,0-4.4,1.6-4.9,4.8H403.9z"/>
	<path class="st10" d="M417.8,683.8h6l0.5,3.2h0.2c2.1-2,4.6-3.8,8-3.8c5.4,0,7.8,3.8,7.8,10.1V709h-7.4v-14.6c0-3.6-1-4.7-3.1-4.7
		c-1.9,0-3,0.9-4.6,2.4V709h-7.4V683.8z"/>
	<path class="st10" d="M450.1,699.8v-10.1h-3.4v-5.5l3.8-0.3l0.9-6.7h6.1v6.7h6v5.8h-6v10c0,2.8,1.3,4,3.2,4c0.8,0,1.7-0.2,2.4-0.5
		l1.2,5.4c-1.3,0.4-3.1,0.9-5.5,0.9C452.6,709.6,450.1,705.6,450.1,699.8z"/>
	<path class="st10" d="M470.9,683.8h6l0.5,4.4h0.2c1.8-3.3,4.5-5,7.1-5c1.4,0,2.3,0.2,3,0.5l-1.2,6.4c-0.9-0.2-1.6-0.4-2.7-0.4
		c-1.9,0-4.2,1.2-5.5,4.6V709h-7.4V683.8z"/>
	<path class="st10" d="M491.6,696.4c0-8.3,5.9-13.2,12.2-13.2s12.2,4.8,12.2,13.2c0,8.3-5.8,13.2-12.2,13.2
		C497.4,709.6,491.6,704.7,491.6,696.4z M508.3,696.4c0-4.3-1.5-7.2-4.6-7.2s-4.6,2.8-4.6,7.2s1.5,7.2,4.6,7.2
		C506.8,703.6,508.3,700.8,508.3,696.4z"/>
	<path class="st10" d="M534.4,696.4c0-8.2,5.1-13.2,10.4-13.2c2.8,0,4.4,1,6.1,2.6l-0.3-3.8v-8.6h7.4V709h-6l-0.5-2.5h-0.2
		c-1.8,1.8-4.2,3.1-6.6,3.1C538.4,709.6,534.4,704.6,534.4,696.4z M550.6,701.2v-10.3c-1.3-1.2-2.8-1.6-4.1-1.6
		c-2.4,0-4.5,2.2-4.5,7c0,4.9,1.7,7.2,4.6,7.2C548.1,703.5,549.4,702.9,550.6,701.2z"/>
	<path class="st10" d="M565.6,696.4c0-8.2,5.8-13.2,11.8-13.2c7.1,0,10.6,5.2,10.6,12.1c0,1.3-0.2,2.7-0.3,3.3h-15
		c0.7,3.6,3.2,5.3,6.5,5.3c1.9,0,3.6-0.6,5.4-1.6l2.5,4.5c-2.6,1.8-5.9,2.8-8.9,2.8C571.1,709.6,565.6,704.7,565.6,696.4z
		 M581.7,693.7c0-2.8-1.2-4.8-4.2-4.8c-2.3,0-4.4,1.6-4.9,4.8H581.7z"/>
	<path class="st10" d="M608.9,676h20.6v6.2h-13.2v6.6h11.2v6.2h-11.2v7.6h13.7v6.2h-21.1V676z"/>
	<path class="st10" d="M638.4,683.8h6l0.5,3.2h0.2c2.1-2,4.6-3.8,8-3.8c5.4,0,7.8,3.8,7.8,10.1V709h-7.4v-14.6c0-3.6-1-4.7-3.1-4.7
		c-1.9,0-3,0.9-4.6,2.4V709h-7.4V683.8z"/>
	<path class="st10" d="M667.5,706.1l3.3-4.6c2.3,1.7,4.4,2.6,6.5,2.6c2.2,0,3.2-0.8,3.2-2.2c0-1.7-2.5-2.4-5-3.4
		c-3.1-1.2-6.6-3.2-6.6-7.4c0-4.7,3.8-7.9,9.5-7.9c3.8,0,6.7,1.6,8.8,3.2l-3.3,4.5c-1.8-1.3-3.5-2.1-5.3-2.1c-1.9,0-2.8,0.8-2.8,2
		c0,1.6,2.3,2.2,4.9,3.2c3.2,1.2,6.7,3,6.7,7.6c0,4.5-3.6,8.1-10.3,8.1C673.8,709.6,670,708.1,667.5,706.1z"/>
	<path class="st10" d="M693.1,696.4c0-8.2,5.8-13.2,11.8-13.2c7.1,0,10.6,5.2,10.6,12.1c0,1.3-0.2,2.7-0.3,3.3h-14.9
		c0.7,3.6,3.2,5.3,6.5,5.3c1.9,0,3.6-0.6,5.4-1.6l2.5,4.5c-2.6,1.8-5.9,2.8-8.9,2.8C698.6,709.6,693.1,704.7,693.1,696.4z
		 M709.2,693.7c0-2.8-1.2-4.8-4.2-4.8c-2.3,0-4.4,1.6-4.9,4.8H709.2z"/>
	<path class="st10" d="M723.1,683.8h6l0.5,3.2h0.2c2.1-2,4.6-3.8,8-3.8c5.4,0,7.8,3.8,7.8,10.1V709h-7.4v-14.6c0-3.6-1-4.7-3.1-4.7
		c-1.9,0-3,0.9-4.6,2.4V709h-7.4V683.8z M732.2,676.7c-1,0-1.6,0.8-1.7,2.8l-4.6-0.3c0.1-5.2,2.3-7.7,6.2-7.7c3.2,0,4.9,3.2,6.5,3.2
		c1,0,1.5-0.8,1.7-2.8l4.6,0.3c-0.1,5.2-2.3,7.7-6.2,7.7C735.5,679.9,733.8,676.7,732.2,676.7z"/>
	<path class="st10" d="M753.3,702c0-5.3,4.2-8.2,14.1-9.2c-0.2-2.2-1.2-3.6-4-3.6c-2.1,0-4.2,0.9-6.6,2.3l-2.6-4.9
		c3.2-1.9,6.7-3.3,10.7-3.3c6.4,0,9.9,3.7,9.9,11.4V709h-6l-0.5-2.6H768c-2.1,1.9-4.5,3.2-7.3,3.2
		C756.2,709.6,753.3,706.2,753.3,702z M767.4,701.7v-4.4c-5.3,0.7-7,2.2-7,4.1c0,1.6,1.1,2.4,2.9,2.4
		C764.9,703.8,766.1,703,767.4,701.7z"/>
	<path class="st10" d="M783.5,683.8h6l0.5,3.2h0.2c2.1-2,4.6-3.8,8-3.8c5.4,0,7.8,3.8,7.8,10.1V709h-7.4v-14.6c0-3.6-1-4.7-3.1-4.7
		c-1.9,0-3,0.9-4.6,2.4V709h-7.4V683.8z"/>
	<path class="st10" d="M813.5,705l10.5-15.3h-9.3v-5.8h18.5v4l-10.5,15.3h10.8v5.8h-20.1L813.5,705L813.5,705z"/>
	<path class="st10" d="M838.7,702c0-5.3,4.2-8.2,14.1-9.2c-0.2-2.2-1.2-3.6-4-3.6c-2.1,0-4.2,0.9-6.6,2.3l-2.6-4.9
		c3.2-1.9,6.7-3.3,10.7-3.3c6.4,0,9.9,3.7,9.9,11.4V709h-6l-0.5-2.6h-0.2c-2.1,1.9-4.5,3.2-7.3,3.2
		C841.6,709.6,838.7,706.2,838.7,702z M852.8,701.7v-4.4c-5.3,0.7-7,2.2-7,4.1c0,1.6,1.1,2.4,2.9,2.4
		C850.3,703.8,851.4,703,852.8,701.7z"/>
	<path class="st10" d="M409,762.6l1.3-5.7c0.5,0.1,1.1,0.3,1.7,0.3c2.4,0,3.7-1.3,4.4-3.3l0.4-1.3l-9.6-24.5h7.4l3.6,10.8
		c0.7,2.3,1.3,4.7,2,7.1h0.2c0.6-2.4,1.1-4.8,1.7-7.1l3-10.8h7.1l-8.7,25.4c-2.4,6.3-5,9.6-10.9,9.6C411,763.1,410,762.9,409,762.6z
		"/>
	<path class="st10" d="M453.9,720.3h20.7v6.2h-13.3v7.7h11.4v6.2h-11.4v12.8h-7.4V720.3z"/>
	<path class="st10" d="M476.9,740.7c0-8.3,5.9-13.2,12.2-13.2s12.2,4.8,12.2,13.2c0,8.3-5.9,13.2-12.2,13.2
		C482.7,753.8,476.9,749,476.9,740.7z M493.6,740.7c0-4.3-1.5-7.2-4.6-7.2s-4.6,2.8-4.6,7.2s1.5,7.2,4.6,7.2
		C492.1,747.8,493.6,745,493.6,740.7z"/>
	<path class="st10" d="M505.9,728.1h6l0.5,4.4h0.2c1.8-3.3,4.5-5,7.1-5c1.4,0,2.3,0.2,3,0.5l-1.2,6.4c-0.9-0.2-1.6-0.4-2.7-0.4
		c-1.9,0-4.2,1.2-5.5,4.6v14.5h-7.4V728.1z"/>
	<path class="st10" d="M525.5,728.1h6l0.5,3.2h0.2c2-2.1,4.3-3.8,7.6-3.8c3.5,0,5.6,1.5,6.9,4.2c2.2-2.3,4.5-4.2,7.8-4.2
		c5.4,0,7.8,3.8,7.8,10.1v15.6H555v-14.6c0-3.6-1-4.7-3.1-4.7c-1.3,0-2.7,0.8-4.2,2.4v16.9h-7.4v-14.6c0-3.6-1-4.7-3.1-4.7
		c-1.2,0-2.7,0.8-4.2,2.4v16.9h-7.4L525.5,728.1L525.5,728.1z"/>
	<path class="st10" d="M567.1,746.3c0-5.3,4.2-8.2,14.1-9.2c-0.2-2.2-1.2-3.6-4-3.6c-2.1,0-4.2,0.9-6.6,2.3l-2.6-4.9
		c3.2-1.9,6.7-3.3,10.7-3.3c6.4,0,9.9,3.7,9.9,11.4v14.4h-6l-0.5-2.6h-0.2c-2.1,1.9-4.5,3.2-7.3,3.2
		C570,753.8,567.1,750.5,567.1,746.3z M581.2,745.9v-4.4c-5.3,0.7-7,2.2-7,4.1c0,1.6,1.1,2.4,2.9,2.4
		C578.8,748.1,579.9,747.3,581.2,745.9z"/>
	<path class="st10" d="M593,740.7c0-8.3,6.1-13.2,13-13.2c3.1,0,5.4,1.1,7.3,2.7l-3.5,4.8c-1.2-1-2.2-1.5-3.4-1.5
		c-3.6,0-5.8,2.8-5.8,7.2s2.4,7.2,5.6,7.2c1.6,0,3.2-0.8,4.5-1.8l2.9,4.9c-2.4,2.2-5.5,3-8.2,3C598.3,753.8,593,749,593,740.7z"/>
	<path class="st10" d="M617,720.6c0-2.3,1.8-3.9,4.3-3.9c2.5,0,4.3,1.6,4.3,3.9c0,2.3-1.8,3.9-4.3,3.9
		C618.8,724.5,617,722.8,617,720.6z M617.5,728.1h7.4v25.1h-7.4V728.1z"/>
	<path class="st10" d="M629.6,740.7c0-8.3,5.8-13.2,12.2-13.2s12.2,4.8,12.2,13.2c0,8.3-5.8,13.2-12.2,13.2S629.6,749,629.6,740.7z
		 M646.3,740.7c0-4.3-1.5-7.2-4.6-7.2s-4.6,2.8-4.6,7.2s1.5,7.2,4.6,7.2S646.3,745,646.3,740.7z M638.6,720.6l7.7-9.2l5,4.9
		l-9.1,7.9L638.6,720.6z"/>
	<path class="st10" d="M658.6,728.1h6l0.5,3.2h0.2c2.1-2,4.6-3.8,8-3.8c5.4,0,7.8,3.8,7.8,10.1v15.6h-7.4v-14.6c0-3.6-1-4.7-3.1-4.7
		c-1.9,0-3,0.9-4.6,2.4v16.9h-7.4V728.1z"/>
	<path class="st10" d="M701.3,720.3h7.4v33h-7.4V720.3z"/>
	<path class="st10" d="M717.9,728.1h6l0.5,3.2h0.2c2.1-2,4.6-3.8,8-3.8c5.4,0,7.8,3.8,7.8,10.1v15.6H733v-14.6c0-3.6-1-4.7-3.1-4.7
		c-1.9,0-3,0.9-4.6,2.4v16.9h-7.4V728.1z"/>
	<path class="st10" d="M749.7,744.1V734h-3.4v-5.5l3.8-0.3l0.9-6.7h6.1v6.7h6v5.8h-6v10c0,2.8,1.3,4,3.2,4c0.8,0,1.7-0.2,2.4-0.5
		l1.2,5.4c-1.3,0.4-3.1,0.9-5.5,0.9C752.2,753.8,749.7,749.9,749.7,744.1z"/>
	<path class="st10" d="M767.7,740.7c0-8.2,5.8-13.2,11.8-13.2c7.1,0,10.6,5.2,10.6,12c0,1.3-0.2,2.7-0.3,3.3h-15
		c0.7,3.6,3.2,5.3,6.5,5.3c1.9,0,3.6-0.6,5.4-1.6l2.5,4.5c-2.6,1.8-5.9,2.8-8.9,2.8C773.3,753.8,767.7,749,767.7,740.7z
		 M783.8,737.9c0-2.8-1.2-4.8-4.2-4.8c-2.3,0-4.4,1.6-4.9,4.8H783.8z"/>
	<path class="st10" d="M795.3,757.6c0-2.1,1.2-3.8,3.5-5v-0.2c-1.3-0.9-2.3-2.2-2.3-4.3c0-1.8,1.2-3.6,2.8-4.7v-0.2
		c-1.8-1.2-3.3-3.6-3.3-6.5c0-6,5-9.1,10.3-9.1c1.4,0,2.8,0.2,3.9,0.6h9.1v5.4h-4c0.5,0.8,0.8,2,0.8,3.3c0,5.8-4.4,8.4-9.8,8.4
		c-0.9,0-1.9-0.2-3-0.5c-0.6,0.5-0.9,1-0.9,1.9c0,1.2,1,1.8,3.7,1.8h4c6.1,0,9.5,1.9,9.5,6.4c0,5.2-5.4,9-14,9
		C799.9,763.9,795.3,762,795.3,757.6z M812.7,756.2c0-1.6-1.3-1.9-3.8-1.9h-2.6c-1.7,0-2.7-0.1-3.5-0.3c-0.9,0.8-1.3,1.6-1.3,2.5
		c0,1.9,2.2,2.9,5.5,2.9C810.3,759.2,812.7,757.9,812.7,756.2z M809.7,736.6c0-2.7-1.5-4.1-3.4-4.1c-2,0-3.4,1.4-3.4,4.1
		c0,2.8,1.5,4.2,3.4,4.2C808.3,740.8,809.7,739.4,809.7,736.6z"/>
	<path class="st10" d="M825.8,728.1h6l0.5,4.4h0.2c1.8-3.3,4.5-5,7.1-5c1.4,0,2.3,0.2,3,0.5l-1.2,6.4c-0.9-0.2-1.6-0.4-2.7-0.4
		c-1.9,0-4.2,1.2-5.5,4.6v14.5h-7.4L825.8,728.1L825.8,728.1z"/>
	<path class="st10" d="M845.4,746.3c0-5.3,4.2-8.2,14.1-9.2c-0.2-2.2-1.2-3.6-4-3.6c-2.1,0-4.2,0.9-6.6,2.3l-2.6-4.9
		c3.2-1.9,6.7-3.3,10.7-3.3c6.4,0,9.9,3.7,9.9,11.4v14.4h-6l-0.5-2.6h-0.2c-2.1,1.9-4.5,3.2-7.3,3.2
		C848.2,753.8,845.4,750.5,845.4,746.3z M859.4,745.9v-4.4c-5.3,0.7-7,2.2-7,4.1c0,1.6,1.1,2.4,2.9,2.4
		C857,748.1,858.1,747.3,859.4,745.9z"/>
	<path class="st10" d="M875.1,745.4v-27.7h7.4v28c0,1.6,0.7,2.1,1.3,2.1c0.3,0,0.5,0,0.9-0.1l0.9,5.5c-0.8,0.3-2,0.6-3.7,0.6
		C876.8,753.8,875.1,750.5,875.1,745.4z"/>
</g>
<path class="st11" d="M837.3,344.4l-10.7-8.9l41.8-9.9L895,355l-7.5,5C887.5,360,873,335.7,837.3,344.4z"/>
<ellipse class="st12" cx="855.6" cy="375.1" rx="24" ry="24.1"/>
<path class="st11" d="M885,407.5h-60.3c0,0-16.5,0.8-25,14.6c-2.8,4.6-4.2,9.9-4.2,15.3v79.1c0,2.1,0.3,4.1,1,6.1
	c0.9,2.5,2.6,5.3,5.4,5.5c5.3,0.3,9.1,0,9.1,0s5.2-0.4,5.3-9.7c0.1-9.3,0-70.5,0-70.5h6.4v194.5c0,2.7,0.6,5.4,1.8,7.8
	c1.4,2.7,3.8,5.4,7.7,5.4h7.9c5.8,0,10.8-4.5,11.2-10.3c0-0.2,0-0.5,0-0.7c0-7.8,0-114.9,0-114.9h7.1v112.2c0,2.5,0.5,5,1.5,7.3
	c1.4,3.1,3.9,6.4,8.4,6.4c8.5,0,8.5,0,8.5,0s8,0.7,8-11.1c0-11.8,14.2-232.5,14.2-232.5S896.3,407.3,885,407.5z"/>
<path class="st11" d="M879.6,368l2.2-10.6c-12.5-19.2-41.3-11.7-41.3-11.7l-1.6,10.9c0,0,8.2-7.1,20.3-5.4
	C860.8,351.6,875.2,353.3,879.6,368z"/>
<path class="st13" d="M964,558.4L929.7,443h6.2l21.5,68.6c0,0,1.8,9.4,11.8,6.2c10-3.2,4.8-14.2,4.8-14.2l-21.5-72.2
	c0,0-3.7-14.7-20.6-21.5l-44.3-1.1c0,0-19.2,1.5-26.9,15.1c-5.1,14.4-25.4,80.2-25.4,80.2s-4.3,13.1,5.5,15.3
	c9.8,2.2,13.8-7.9,13.8-7.9l20-68l5.4,0.1l-33.8,114.7h32v90.7c0,0,0.6,8.8,12.6,8.2s11.5-8.8,11.5-8.8v-90.1h6.2v90.1
	c0,0,0.3,9.2,10.8,8.8s12.8-8.8,12.8-8.8v-90.1L964,558.4L964,558.4z"/>
<path class="st13" d="M889.7,352.6l-10.7-8.9l41.8-9.9l26.5,29.3l-7.5,5C939.8,368.2,925.3,343.9,889.7,352.6z"/>
<ellipse class="st13" cx="907.2" cy="382.5" rx="24" ry="24.1"/>
<path class="st13" d="M931.2,375.5l2.2-10.6c-12.5-19.2-41.3-11.7-41.3-11.7l-1.6,10.9c0,0,8.2-7.1,20.3-5.4
	C912.4,359,926.8,360.7,931.2,375.5z"/>
<g>
	<g>
		<path class="st14" d="M91.7,576.6c2.9,5.8,6.2,13.8,9.5,25.1c3.6,12.2,3.7,22,0.5,29.3c-2.9,6.8-9.1,12.5-17.8,15
			c-8.7,2.6-16.7,2-23.2-1.6c-8.7-4.8-15-14.2-18.5-26.1c-0.9-3.1-1.6-6-1.8-8.4L5.6,620.3l-4.9-16.6L91.7,576.6z M53.7,606
			c0.1,2.3,0.6,5,1.7,8.4c3.7,12.5,12.3,18.3,23.1,15.1c10.2-3,13.5-11.7,10.1-23.3c-1.4-4.6-2.8-7.8-3.7-9.5L53.7,606z"/>
		<path class="st14" d="M61.9,700.5l-28.2,3.4l-7.2-16.6L127,677l8.9,20.4l-75.7,67.1l-7.5-17.2l21.4-18.8L61.9,700.5z M85.1,720.4
			l18.7-16.4c4.7-4.1,10.1-8.1,14.6-11.7l-0.1-0.3c-5.7,1-12.4,2.3-18.3,3.1l-24.7,2.8L85.1,720.4z"/>
		<path class="st14" d="M159.9,748.9c4.6,5,10.6,12.7,16,21.2c7.4,11.6,10.5,20.7,9.3,29.1c-0.9,6.8-4.9,12.9-11.8,17.4
			c-10.5,6.7-22.1,4.2-29.6-1.7l-0.3,0.2c1.5,7.3-1.9,14.2-8.5,21.3c-8.5,9-16.4,17.2-18.5,20.8l-9.7-15.1c1.5-2.8,7-9,15.7-17.7
			c9.1-9.1,10.1-15.1,4.9-23.6l-4.7-7.4l-33.3,21.3L79.9,800L159.9,748.9z M133.5,786.4l5.6,8.7c6.4,10,15.6,12.8,23.7,7.6
			c8.8-5.6,9-14.5,3-24c-3-4.7-5.3-7.4-6.6-8.7L133.5,786.4z"/>
		<path class="st14" d="M175.9,886.7l-25.4,12.7l-12.4-13.2l91.2-43.5l15.2,16.2l-48.8,88.5l-12.9-13.7l13.9-24.9L175.9,886.7z
			 M204.4,897.7l12.1-21.7c3.1-5.4,6.8-11.1,9.9-15.9l-0.2-0.2c-5.1,2.8-10.9,6.3-16.3,9l-22.4,10.9L204.4,897.7z"/>
		<path class="st14" d="M295,903.7L263.2,950c-10.6,15.5-9.2,27.1,0.6,33.8c10.4,7.1,21.5,4.3,32.2-11.3l31.7-46.3l14.4,9.9
			l-31.1,45.3c-16.8,24.4-36.7,26.7-55.8,13.6c-18.2-12.5-23-30.9-5.9-55.9l31.2-45.4L295,903.7z"/>
		<path class="st14" d="M334.1,1039.8l34.4-89.9l18.7,7.1l8.4,47.4c2.1,12.2,3.3,24.6,3.7,35.9l0.4,0c3.4-12.4,7.5-24.1,12.8-37.8
			l12-31.4l15.1,5.8l-34.4,89.9l-16.9-6.5l-8.2-48.5c-1.9-12-3.7-25.3-4.2-37.1l-0.5-0.1c-3.8,11.9-8.1,23.9-13.8,38.6l-12.3,32.2
			L334.1,1039.8z"/>
		<path class="st14" d="M488.2,987.2l-19.6,94.2l-17.1-3.6l19.6-94.2L488.2,987.2z"/>
		<path class="st14" d="M535.6,1090.9l-23.7-98.3l19,1.4l9.7,44.6c2.8,12.4,5.1,23.9,6.7,35.6l0.3,0c3.4-11.1,7.7-22.6,12.3-33.9
			l17.2-42.8l18.6,1.4l-40.2,93.5L535.6,1090.9z"/>
		<path class="st14" d="M675.8,1048.3l-36,2.1l1.6,28.2l40.3-2.3l0.8,14.4l-57.8,3.3l-5.5-96.1l55.6-3.2l0.8,14.4l-38.2,2.2
			l1.4,24.7l36-2.1L675.8,1048.3z"/>
		<path class="st14" d="M705.2,992.5c6.3-2.5,15.6-5.3,25.6-7.3c13.4-2.7,23.1-2.3,30.5,1.7c6,3.3,10.3,9.2,11.9,17.3
			c2.5,12.1-4.1,22.1-12.3,27l0.1,0.4c7.3,1.2,12.6,6.9,16.8,15.6c5.4,11.2,10.1,21.5,12.7,24.8l-17.6,3.6c-2-2.4-5.8-9.8-10.8-21
			c-5.2-11.8-10.4-14.8-20.2-13.1l-8.6,1.7l7.8,38.8l-17,3.4L705.2,992.5z M730.6,1030.6l10.1-2.1c11.6-2.4,17.5-10,15.6-19.3
			c-2.1-10.3-10.2-13.6-21.3-11.4c-5.4,1.1-8.8,2.2-10.5,3L730.6,1030.6z"/>
		<path class="st14" d="M822.7,1041.9c6.4,1,15.5,0.5,23.8-2.7c10.4-4.1,14.3-11.3,11.4-18.6c-2.6-6.8-8.7-9-21.6-8.7
			c-16.8,0.5-29.3-3.7-34.3-16.6c-5.7-14.7,2.1-30.5,21.5-38.1c9.7-3.8,17.5-4.5,23.1-3.9l1.3,14.7c-3.9-0.4-11.1-0.6-19.5,2.7
			c-10.3,4.1-12.6,11.3-10.5,16.6c2.7,6.9,9.1,8.1,22.8,8c17.8-0.1,28.3,4.8,33.4,17.7c5.6,14.4-0.3,31.1-23.3,40.1
			c-9.4,3.7-20.3,4.8-26.3,3.7L822.7,1041.9z"/>
		<path class="st14" d="M888.9,926.5l48.1,83.3l-15.2,8.8l-48.1-83.3L888.9,926.5z"/>
		<path class="st14" d="M939.9,909.3l-21.2,17.2l-9.3-11.5l56.3-45.6l9.3,11.5l-21.4,17.4l51.3,63.3l-13.6,11L939.9,909.3z"/>
		<path class="st14" d="M1039.2,890.8l15.4,23.8l-11.7,13.8l-53.4-85.7l14.4-17l93.5,38.6l-12.2,14.3l-26.3-11L1039.2,890.8z
			 M1046.9,861.2l-22.9-9.6c-5.7-2.5-11.7-5.5-16.9-8l-0.2,0.2c3.4,4.7,7.5,10.1,10.8,15.1l13.3,21L1046.9,861.2z"/>
		<path class="st14" d="M1038.3,781.7c2.2-6.4,6.3-15.3,11.3-24.1c6.8-11.9,13.4-18.9,21.3-21.8c6.4-2.4,13.7-1.7,20.9,2.4
			c10.8,6.1,14,17.6,12.3,27l0.4,0.2c5.7-4.7,13.5-5,22.8-2.4c12,3.3,22.9,6.5,27,6.7l-8.9,15.6c-3.2-0.1-11.2-2-22.9-5.6
			c-12.3-3.8-18-1.9-23.2,6.6l-4.4,7.7l34.4,19.5l-8.6,15.1L1038.3,781.7z M1083.8,787.6l5.1-9c5.9-10.3,4-19.8-4.3-24.5
			c-9.1-5.2-17-1.2-22.6,8.6c-2.7,4.8-4.1,8.1-4.6,9.9L1083.8,787.6z"/>
		<path class="st14" d="M1087.5,681.4l88.8,37.2l-6.8,16.1l-88.8-37.2L1087.5,681.4z"/>
		<path class="st14" d="M1168.7,581.3c31,8.7,43.5,32.4,36.3,57.8c-7.3,26-32,36.9-59.1,29.2c-28.4-8-43.5-31.6-36.2-57.6
			C1117.3,584,1142.2,573.9,1168.7,581.3z M1150.6,650.5c18.9,5.3,36.6,0.1,41.1-16c4.6-16.3-8-29.8-27.4-35.2
			c-17.5-4.9-36.4-1-41.2,15.8C1118.5,631.8,1131.6,645.2,1150.6,650.5z"/>
	</g>
</g>
</svg>
